# xmcd CD database file
#
# Track frame offsets:
#	217
#	17467
#	36242
#	53860
#	77547
#	93617
#	125265
#	150542
#
# Disc length: 2408 seconds
#
# Revision: 2
# Processed by: cddbd v1.5.2PL0 Copyright (c) Steve Scherf et al.
# Submitted via: CDex 1.51
#
DISCID=55096608
DTITLE=Bobby Womack - The Poet
DYEAR=1900
DGENRE=Soul
TTITLE0=So Many Sides Of You 
TTITLE1=Lay Your Lovin' On Me
TTITLE2=Secrets
TTITLE3=Just My Imagination
TTITLE4=Stand Up
TTITLE5=Games
TTITLE6=If You Think You're Lonely Now
TTITLE7=Where Do We Go From Here
EXTD=
EXTT0=
EXTT1=
EXTT2=
EXTT3=
EXTT4=
EXTT5=
EXTT6=
EXTT7=
PLAYORDER=
